# xmcd
#
# Track frame offsets:
#   150
#   11763
#   22588
#   29379
#   39556
#   49629
#   62629
#   74032
#   92265
#   106811
#   122714
#   135018
#   146143
#   157268
#   166778
#   180507
#   193564
#   208531
#   220520
#   235910
#   247820
#
# Disc length: 3487 seconds
#
# Revision: 0
# Processed by: cddbd v1.5.1PL2 Copyright (c) Steve Scherf et al.
# Submitted via: Media_Universe 3.0
#
DISCID=0f0d9d15
DTITLE=Various Artist - White Boy Blues
DYEAR=1900
DGENRE=Blues
TTITLE0=Snake Drive
TTITLE1=West Coast Idea
TTITLE2=Choker
TTITLE3=I'm Your Witchdoctor
TTITLE4=Tribute To Elmore
TTITLE5=Freight Loader
TTITLE6=Miles Road
TTITLE7=Telephone Blues
TTITLE8=Draggin' My Tail
TTITLE9=Down In The Boots
TTITLE10=Steelin'
TTITLE11=Chuckles
TTITLE12=Chuckles
TTITLE13=L.A. Breakdown
TTITLE14=Piano Shuffle
TTITLE15=Someday Baby
TTITLE16=Porcupine Juice
TTITLE17=Rubber Monkey
TTITLE18=Albert
TTITLE19=Who's Knocking
TTITLE20=Look Down at My Woman
EXTD=
EXTT0=
EXTT1=
EXTT2=
EXTT3=
EXTT4=
EXTT5=
EXTT6=
EXTT7=
EXTT8=
EXTT9=
EXTT10=
EXTT11=
EXTT12=
EXTT13=
EXTT14=
EXTT15=
EXTT16=
EXTT17=
EXTT18=
EXTT19=
EXTT20=
PLAYORDER=
